<?xml version="1.0" encoding="utf-8"?>
<!-- Generator: Adobe Illustrator 21.0.2, SVG Export Plug-In . SVG Version: 6.00 Build 0)  -->
<svg version="1.1" id="Layer_1" xmlns="http://www.w3.org/2000/svg" xmlns:xlink="http://www.w3.org/1999/xlink" x="0px" y="0px"
	 viewBox="0 0 144 144" style="enable-background:new 0 0 144 144;" xml:space="preserve">
<style type="text/css">
	.st0{fill:#78CDD5;}
	.st1{fill:#FDFBE3;}
	.st2{fill:#FAF17E;}
	.st3{fill:#FDF9CE;}
	.st4{fill:none;stroke:#78CDD5;stroke-width:0.8152;stroke-miterlimit:10;}
</style>
<g id="s0P8uP_1_">
	<rect x="2.4" y="19.2" class="st0" width="123.3" height="79.6"/>
	<rect x="22.5" y="38.9" class="st1" width="78.4" height="9.9"/>
	<rect x="22.5" y="48.8" class="st2" width="78.4" height="29.9"/>
	<rect x="22.5" y="78.8" class="st3" width="78.4" height="20.1"/>
	<rect x="110.9" y="43.9" class="st2" width="6.5" height="6.5"/>
	<rect x="110.9" y="67.6" class="st3" width="6.5" height="6.5"/>
	<rect x="62.8" y="98.8" class="st0" width="2.5" height="18.4"/>
	<polygon class="st0" points="40.4,123.7 64,116.1 87.4,123.7 	"/>
	<path class="st4" d="M135.9,118.3c0,0,1.2-10-19.5-8.2S96.7,98.8,96.7,98.8"/>
	<path class="st0" d="M138.4,124.8h-5.1c-1.8,0-3.2-1.4-3.2-3.2l0,0c0-1.8,1.4-3.2,3.2-3.2h5.1c1.8,0,3.2,1.4,3.2,3.2l0,0
		C141.6,123.3,140.2,124.8,138.4,124.8z"/>
</g>
</svg>
