<?xml version="1.0" encoding="utf-8"?>
<!-- Generator: Adobe Illustrator 21.0.2, SVG Export Plug-In . SVG Version: 6.00 Build 0)  -->
<svg version="1.1" id="Layer_1" xmlns="http://www.w3.org/2000/svg" xmlns:xlink="http://www.w3.org/1999/xlink" x="0px" y="0px"
	 viewBox="0 0 144 144" style="enable-background:new 0 0 144 144;" xml:space="preserve">
<style type="text/css">
	.st0{fill:#FFFFFF;}
	.st1{fill:#26A0AA;}
</style>
<circle class="st0" cx="72" cy="72.1" r="68.3"/>
<g>
	<path class="st1" d="M94.2,123.5H49.7c-16,0-29.1-13-29.1-29.1V49.9c0-16,13-29.1,29.1-29.1h44.6c16,0,29.1,13,29.1,29.1v44.6
		C123.3,110.5,110.3,123.5,94.2,123.5z"/>
	<path class="st0" d="M94.4,114.3H49.3c-10.8,0-19.6-8.7-19.6-19.6v-45c0-10.8,8.7-19.6,19.6-19.6h45c10.8,0,19.6,8.7,19.6,19.6v45
		C113.9,105.6,105.2,114.3,94.4,114.3z"/>
	<circle class="st1" cx="72" cy="72.1" r="26.5"/>
	<circle class="st1" cx="99.6" cy="44.5" r="6.6"/>
	<circle class="st0" cx="72" cy="72.1" r="17"/>
</g>
</svg>
