<?xml version="1.0" encoding="utf-8"?>
<!-- Generator: Adobe Illustrator 21.0.2, SVG Export Plug-In . SVG Version: 6.00 Build 0)  -->
<svg version="1.1" id="Layer_1" xmlns="http://www.w3.org/2000/svg" xmlns:xlink="http://www.w3.org/1999/xlink" x="0px" y="0px"
	 viewBox="0 0 144 144" style="enable-background:new 0 0 144 144;" xml:space="preserve">
<style type="text/css">
	.st0{fill:#26A0AA;}
	.st1{fill:#FFFFFF;}
</style>
<path class="st0" d="M98.3,132.6H45.7c-18.9,0-34.3-15.3-34.3-34.3V45.7c0-18.9,15.3-34.3,34.3-34.3h52.7
	c18.9,0,34.3,15.3,34.3,34.3v52.7C132.6,117.3,117.3,132.6,98.3,132.6z"/>
<path class="st1" d="M98.5,121.8H45.3c-12.7,0-23.1-10.3-23.1-23.1V45.6c0-12.7,10.3-23.1,23.1-23.1h53.1
	c12.7,0,23.1,10.3,23.1,23.1v53.1C121.5,111.5,111.2,121.8,98.5,121.8z"/>
<circle class="st0" cx="72" cy="72" r="31.3"/>
<circle class="st0" cx="104.6" cy="39.4" r="7.8"/>
<circle class="st1" cx="72" cy="72" r="20.1"/>
</svg>
