<?xml version="1.0" encoding="utf-8"?>
<!-- Generator: Adobe Illustrator 21.0.2, SVG Export Plug-In . SVG Version: 6.00 Build 0)  -->
<svg version="1.1" id="Layer_1" xmlns="http://www.w3.org/2000/svg" xmlns:xlink="http://www.w3.org/1999/xlink" x="0px" y="0px"
	 viewBox="0 0 144 144" style="enable-background:new 0 0 144 144;" xml:space="preserve">
<style type="text/css">
	.st0{fill:#26A0AA;}
	.st1{fill:#FFFFFF;}
	.st2{fill:#FAF17E;}
	.st3{fill:none;stroke:#FAF17E;stroke-width:2;stroke-linecap:round;stroke-linejoin:round;stroke-miterlimit:10;}
</style>
<path class="st0" d="M127.9,103.9H18c-5.4,0-9.8-4.4-9.8-9.8V43c0-5.4,4.4-9.8,9.8-9.8h109.9c5.4,0,9.8,4.4,9.8,9.8v51.1
	C137.8,99.5,133.4,103.9,127.9,103.9z"/>
<rect x="23.9" y="35" class="st1" width="97.9" height="66.8"/>
<circle class="st1" cx="129.6" cy="68.4" r="4.6"/>
<rect x="65" y="59.2" class="st2" width="18" height="18"/>
<line class="st3" x1="29" y1="12.1" x2="55.6" y2="50.2"/>
<line class="st3" x1="117.2" y1="12.1" x2="90.6" y2="50.2"/>
<line class="st3" x1="73" y1="3.7" x2="73.2" y2="50.2"/>
<line class="st3" x1="29.9" y1="124.3" x2="56.5" y2="86.2"/>
<line class="st3" x1="118" y1="124.3" x2="91.4" y2="86.2"/>
<line class="st3" x1="73.8" y1="132.6" x2="74.1" y2="86.2"/>
</svg>
