<?xml version="1.0" encoding="utf-8"?>
<!-- Generator: Adobe Illustrator 21.0.2, SVG Export Plug-In . SVG Version: 6.00 Build 0)  -->
<svg version="1.1" id="Layer_1" xmlns="http://www.w3.org/2000/svg" xmlns:xlink="http://www.w3.org/1999/xlink" x="0px" y="0px"
	 viewBox="0 0 144 144" style="enable-background:new 0 0 144 144;" xml:space="preserve">
<style type="text/css">
	.st0{fill:#D4EDF1;}
	.st1{fill:#43B1BA;}
	.st2{fill:#43BFC9;}
	.st3{fill:#FFFFFF;}
</style>
<circle class="st0" cx="29.6" cy="56.3" r="25.5"/>
<circle class="st1" cx="110.3" cy="47.8" r="29.6"/>
<circle class="st2" cx="71.3" cy="110.6" r="18.8"/>
<path class="st3" d="M37.8,75.2H21.3c-5.9,0-10.7-4.8-10.7-10.7V48c0-5.9,4.8-10.7,10.7-10.7h16.5c5.9,0,10.7,4.8,10.7,10.7v16.5
	C48.5,70.4,43.7,75.2,37.8,75.2z"/>
<path class="st0" d="M37.8,71.8H21.2c-4,0-7.2-3.2-7.2-7.2V48c0-4,3.2-7.2,7.2-7.2h16.6c4,0,7.2,3.2,7.2,7.2v16.6
	C45,68.6,41.8,71.8,37.8,71.8z"/>
<circle class="st3" cx="29.6" cy="56.3" r="9.8"/>
<circle class="st3" cx="39.7" cy="46.1" r="2.4"/>
<circle class="st0" cx="29.6" cy="56.3" r="6.3"/>
<path class="st3" d="M68.6,123.3h4.7v-11.6h3.9l0.6-4.4h-4.4V104c0,0-0.1-1.8,2-1.8c2,0,2.7,0,2.7,0v-4.1c0,0-4.4-0.5-6,0.3
	c0,0-2.4,0.7-3.1,3.7c0,0-0.2,0.6-0.2,1.9c0,1.3,0,3.3,0,3.3l-3.9,0v4.5l3.9,0L68.6,123.3z"/>
<path class="st3" d="M92.4,32.5c0,0,6.6,8.6,17.6,8.9c0,0-1.4-5.7,3.6-9.1c0,0,5.8-3.9,11,1.3c0,0,1.9-0.1,5.3-2
	c0,0-0.7,2.9-3.5,4.6c0,0,2.1,0.1,4.6-1.2c0,0-1,2.2-4.1,4.4c0,0,0.7,11.7-8.4,19.6c0,0-5.6,5.8-15.9,5.8c0,0-6.6,0.3-13.3-3.8
	c0,0,7.5,0.9,12.6-3.5c0,0-5.5,0.2-7.9-6c0,0,2,0.4,3.7-0.2c0,0-6.6-1.2-6.7-8.5c0,0,1.6,1,3.8,1C95,43.8,88.9,40.1,92.4,32.5z"/>
</svg>
