<?xml version="1.0" encoding="utf-8"?>
<!-- Generator: Adobe Illustrator 21.0.2, SVG Export Plug-In . SVG Version: 6.00 Build 0)  -->
<svg version="1.1" id="Layer_1" xmlns="http://www.w3.org/2000/svg" xmlns:xlink="http://www.w3.org/1999/xlink" x="0px" y="0px"
	 viewBox="0 0 144 144" style="enable-background:new 0 0 144 144;" xml:space="preserve">
<style type="text/css">
	.st0{fill:#26A0AA;}
</style>
<path class="st0" d="M20.8,19.3c0,0,20,26,53.2,26.8c0,0-4.3-17.3,10.8-27.4c0,0,17.6-11.8,33.4,3.9c0,0,5.9-0.4,16.2-6.2
	c0,0-2.3,8.8-10.5,13.8c0,0,6.4,0.3,14-3.7c0,0-2.9,6.7-12.5,13.3c0,0,2.2,35.4-25.3,59.4c0,0-16.9,17.6-48,17.6c0,0-20,1-40.2-11.5
	c0,0,22.8,2.8,38.1-10.7c0,0-16.7,0.8-23.9-18c0,0,6.2,1.3,11.2-0.6c0,0-19.8-3.8-20.2-25.6c0,0,4.9,3.1,11.5,3.1
	C28.5,53.5,10,42.4,20.8,19.3z"/>
</svg>
