<?xml version="1.0" encoding="utf-8"?>
<!-- Generator: Adobe Illustrator 21.0.2, SVG Export Plug-In . SVG Version: 6.00 Build 0)  -->
<svg version="1.1" id="Layer_1" xmlns="http://www.w3.org/2000/svg" xmlns:xlink="http://www.w3.org/1999/xlink" x="0px" y="0px"
	 viewBox="0 0 144 144" style="enable-background:new 0 0 144 144;" xml:space="preserve">
<style type="text/css">
	.st0{fill:#FFFFFF;}
	.st1{fill:#26A0AA;}
</style>
<circle class="st0" cx="72" cy="70.2" r="68.3"/>
<path class="st1" d="M27.4,32c0,0,16.5,21.4,43.9,22.1c0,0-3.5-14.3,8.9-22.6c0,0,14.5-9.7,27.5,3.2c0,0,4.9-0.3,13.4-5.1
	c0,0-1.9,7.3-8.7,11.4c0,0,5.3,0.2,11.5-3.1c0,0-2.4,5.5-10.3,11c0,0,1.8,29.2-20.9,49c0,0-13.9,14.5-39.6,14.5
	c0,0-16.5,0.8-33.2-9.5c0,0,18.8,2.3,31.4-8.8c0,0-13.8,0.7-19.7-14.8c0,0,5.1,1.1,9.2-0.5c0,0-16.3-3.1-16.7-21.1
	c0,0,4,2.6,9.5,2.6C33.7,60.2,18.5,51.1,27.4,32z"/>
</svg>
